<svg width="128" height="32" viewBox="0 0 128 32" fill="none" xmlns="http://www.w3.org/2000/svg">
<path d="M128 9.25861H119.386V17.9555H128V9.25861Z" fill="#93DFC0"/>
<path d="M118.833 0H110.22V8.69692H118.833V0Z" fill="#93DFC0"/>
<path d="M119.238 8.69692H127.849C127.726 3.93173 123.938 0.098358 119.238 0V8.69692Z" fill="#04B66D"/>
<path d="M14.4552 14.3655V31.7749H10.961V24.3669H3.49412V31.7749H0V14.3655H3.49412V21.5223H10.961V14.3655H14.4552Z" fill="#1D1D1B"/>
<path d="M25.918 22.6819C25.5853 22.0762 25.1347 21.6103 24.569 21.2842C24.0033 20.9606 23.3966 20.7976 22.7465 20.7976C22.0963 20.7976 21.4973 20.9555 20.9495 21.2712C20.3991 21.587 19.9537 22.0477 19.6133 22.656C19.2728 23.2643 19.1013 23.9813 19.1013 24.8147C19.1013 25.6482 19.2703 26.3729 19.6133 26.9967C19.9537 27.6205 20.4042 28.0994 20.9623 28.4307C21.5203 28.7646 22.1142 28.9302 22.7465 28.9302C23.3787 28.9302 24.0033 28.7672 24.569 28.4436C25.1347 28.1201 25.5853 27.6542 25.918 27.0459C26.2508 26.4376 26.4172 25.7103 26.4172 24.8639C26.4172 24.0175 26.2508 23.2902 25.918 22.6819ZM16.3674 21.0978C16.9255 20.0159 17.6806 19.185 18.6405 18.6026C19.5979 18.0202 20.6679 17.7303 21.848 17.7303C22.8796 17.7303 23.7832 17.9374 24.5562 18.3541C25.3293 18.7683 25.9513 19.2937 26.4172 19.9253V17.9555H29.9369V31.7723H26.4172V29.7507C25.9667 30.4004 25.3472 30.9362 24.5562 31.3607C23.7653 31.7852 22.854 31.9974 21.8224 31.9974C20.6577 31.9974 19.5953 31.6972 18.638 31.0993C17.6806 30.5014 16.9229 29.6576 16.3649 28.5679C15.8068 27.4782 15.5278 26.228 15.5278 24.8147C15.5278 23.4015 15.8068 22.1798 16.3649 21.0978" fill="#1D1D1B"/>
<path d="M44.6891 17.9555V31.7723H41.1693V30.0251C40.7214 30.623 40.1326 31.0941 39.4082 31.4332C38.6838 31.7748 37.8979 31.9457 37.0481 31.9457C35.9653 31.9457 35.0079 31.7179 34.176 31.2598C33.344 30.8016 32.6913 30.1286 32.2177 29.2408C31.7442 28.353 31.5061 27.2918 31.5061 26.0597V17.9529H35.0002V25.5602C35.0002 26.6576 35.2741 27.5014 35.8245 28.0916C36.3748 28.6817 37.1223 28.9768 38.072 28.9768C39.0217 28.9768 39.7947 28.6817 40.3451 28.0916C40.8929 27.5014 41.1693 26.6576 41.1693 25.5602V17.9529H44.6891V17.9555Z" fill="#1D1D1B"/>
<path d="M49.9724 13.3171H46.4783V31.7748H49.9724V13.3171Z" fill="#1D1D1B"/>
<path d="M73.0489 19.3144C74.0881 20.3549 74.6103 21.8044 74.6103 23.6655V31.7722H71.1137V24.1391C71.1137 23.0572 70.8398 22.2315 70.2894 21.6569C69.739 21.0823 68.9916 20.7976 68.0419 20.7976C67.0922 20.7976 66.3396 21.0849 65.7816 21.6569C65.2236 22.2315 64.9446 23.0572 64.9446 24.1391V31.7722H61.4504V24.1391C61.4504 23.0572 61.1765 22.2315 60.6262 21.6569C60.0758 21.0823 59.3284 20.7976 58.3787 20.7976C57.429 20.7976 56.6508 21.0849 56.0953 21.6569C55.5373 22.2315 55.2583 23.0572 55.2583 24.1391V31.7722H51.7642V17.9555H55.2583V19.6276C55.7088 19.0452 56.2873 18.5871 56.9938 18.2558C57.7003 17.9245 58.4785 17.7562 59.3284 17.7562C60.4086 17.7562 61.3762 17.984 62.2235 18.4421C63.0733 18.9003 63.7286 19.5526 64.1971 20.399C64.6476 19.6017 65.3004 18.9598 66.1579 18.4784C67.0154 17.9969 67.9421 17.7562 68.9404 17.7562C70.6375 17.7562 72.007 18.2765 73.0489 19.3144Z" fill="#1D1D1B"/>
<path d="M84.4323 28.4928C84.9903 28.1848 85.4357 27.724 85.7685 27.108C86.1013 26.492 86.2677 25.7439 86.2677 24.8639C86.2677 23.5516 85.9221 22.5395 85.2309 21.8329C84.5398 21.1263 83.6951 20.7717 82.6967 20.7717C81.6984 20.7717 80.8614 21.1263 80.1881 21.8329C79.5149 22.5395 79.177 23.5516 79.177 24.8639C79.177 26.1762 79.5047 27.1882 80.1625 27.8949C80.8204 28.6015 81.6472 28.9561 82.6455 28.9561C83.2778 28.9561 83.8717 28.8034 84.4297 28.4954M79.049 31.1148C77.9842 30.5247 77.1471 29.6886 76.5404 28.6093C75.9338 27.5299 75.6292 26.2823 75.6292 24.8691C75.6292 23.4558 75.9414 22.2082 76.566 21.1289C77.1906 20.0495 78.043 19.2135 79.1258 18.6233C80.2061 18.0332 81.4143 17.7381 82.7454 17.7381C84.0765 17.7381 85.2821 18.0332 86.3649 18.6233C87.4477 19.2135 88.3001 20.0495 88.9247 21.1289C89.5493 22.2108 89.8616 23.4558 89.8616 24.8691C89.8616 26.2823 89.5416 27.5299 88.8991 28.6093C88.2592 29.6912 87.3914 30.5272 86.3035 31.1148C85.213 31.7049 83.9946 32 82.6455 32C81.2965 32 80.1165 31.7049 79.0516 31.1148" fill="#1D1D1B"/>
<path d="M102.609 19.3144C103.623 20.3549 104.133 21.8044 104.133 23.6655V31.7722H100.638V24.1391C100.638 23.0417 100.365 22.1979 99.8142 21.6077C99.2638 21.0176 98.5163 20.7225 97.5667 20.7225C96.617 20.7225 95.8388 21.0176 95.2833 21.6077C94.7253 22.1979 94.4463 23.0417 94.4463 24.1391V31.7722H90.9521V17.9555H94.4463V19.6768C94.9122 19.0789 95.5086 18.6078 96.2304 18.2687C96.9549 17.9271 97.7484 17.7562 98.6136 17.7562C100.262 17.7562 101.593 18.2765 102.609 19.3144Z" fill="#1D1D1B"/>
<path d="M110.22 20.8234V27.5092C110.22 27.9751 110.332 28.3116 110.558 28.5187C110.783 28.7257 111.162 28.8293 111.694 28.8293H113.061V31.7722H111.121C108.174 31.7722 106.702 30.3435 106.702 27.4833V20.8234H105.054V17.9555H106.702V14.5389H110.222V17.9555H113.061V20.8234H110.222H110.22Z" fill="#1D1D1B"/>
</svg>
