<svg width="184" height="67" viewBox="0 0 184 67" fill="none" xmlns="http://www.w3.org/2000/svg">
<path fill-rule="evenodd" clip-rule="evenodd" d="M49.6366 10.2067C47.2219 10.2067 44.8304 10.6848 42.5982 11.6144C40.366 12.544 38.3361 13.9073 36.6251 15.6275C34.9141 17.3478 33.5555 19.3914 32.6282 21.6423C31.9059 23.3954 31.3476 25.2609 31.293 27.1323C31.293 28.2069 31.293 37.6199 31.293 38.2H22.0615L22.0165 28.7445C22.0165 27.671 21.9886 26.5918 21.8049 25.5341C21.5846 24.2653 21.2385 23.0276 20.7393 21.8224C19.8139 19.5884 18.4576 17.5585 16.7478 15.8487C15.0379 14.1388 13.0081 12.7825 10.774 11.8572C8.54002 10.9318 6.14562 10.4555 3.72754 10.4555V1.24883C7.35466 1.24883 10.9463 1.96324 14.2973 3.35128C17.6483 4.73932 20.6931 6.7738 23.2579 9.33856C24.5082 10.5889 25.6326 11.9534 26.6174 13.4118C27.6303 11.8774 28.7954 10.4441 30.0975 9.13496C32.6611 6.55748 35.7059 4.51158 39.0587 3.11529C42.4116 1.71899 46.006 1 49.6366 1V10.2067Z" fill="#F18C34"/>
<path d="M3.72754 19.4134C8.81225 19.4134 12.9342 23.5354 12.9342 28.6201V37.8268H3.72754V19.4134Z" fill="#F18C34"/>
<path d="M40.8031 28.6201C40.8031 23.5354 44.9251 19.4134 50.0098 19.4134V37.8268H40.8031V28.6201Z" fill="#F18C34"/>
<path d="M65.3031 12.25C72.4031 12.2 78.2031 17.95 78.2031 25.05C78.2531 32.15 72.5531 37.95 65.4531 38C58.3031 38.05 52.5031 32.3 52.5031 25.2C52.4531 18.1 58.1531 12.3 65.3031 12.25ZM69.8531 29.6C71.0531 28.4 71.7031 26.8 71.7031 25.1C71.7031 23.4 71.0031 21.8 69.8031 20.6C68.6031 19.45 67.0031 18.8 65.3031 18.8C63.6031 18.8 62.0531 19.45 60.8531 20.65C59.6531 21.9 59.0031 23.45 59.0031 25.15C59.0031 26.85 59.7031 28.45 60.9031 29.65C62.1031 30.85 63.7031 31.5 65.4031 31.5C67.1031 31.45 68.7031 30.8 69.8531 29.6ZM87.2598 3.25V38H80.2598V3.25H87.2598ZM97.2195 3.15V9.05H90.2695V3.15H97.2195ZM97.2695 12.3V38H90.2695V12.3H97.2695ZM113.079 12.35C120.129 11.75 126.029 16.3 126.029 25.15C126.029 25.35 126.029 25.55 126.029 25.75V38H119.529V36.4V25.3H119.479C119.479 25.25 119.479 25.2 119.479 25.2C119.479 23.5 118.829 21.9 117.629 20.7C116.429 19.5 114.829 18.85 113.129 18.85C111.429 18.9 109.829 19.55 108.629 20.75C107.429 21.95 106.779 23.55 106.829 25.25V25.3H106.779V38H99.7793V12.15H106.779V15.5C108.879 13 110.779 12.55 113.079 12.35ZM147.051 12.15H154.051V38H147.051V35.1C145.501 37.1 142.901 37.9 140.551 37.9C133.451 37.95 127.651 32.2 127.601 25.1C127.551 18 133.301 12.2 140.401 12.15C142.851 12.15 145.501 13.05 147.051 15V12.15ZM144.951 29.5C146.151 28.3 146.801 26.7 146.801 25C146.801 23.3 146.151 21.7 144.901 20.5C143.701 19.3 142.101 18.65 140.451 18.7C138.751 18.7 137.151 19.35 135.951 20.55C134.751 21.75 134.101 23.35 134.101 25.05C134.101 26.75 134.801 28.35 136.001 29.55C137.201 30.75 138.801 31.4 140.501 31.4C142.201 31.35 143.801 30.7 144.951 29.5ZM164.066 16.1C165.216 12.9 167.566 11.8 172.766 11.8V18.95C167.366 18.95 164.066 23.3 164.066 26.6V38H157.066V26.6V12.25H164.066V16.1ZM181.985 3.15V9.05H175.035V3.15H181.985ZM182.035 12.3V38H175.035V12.3H182.035Z" fill="#F18C34"/>
<path d="M39.8 45.78V45H51.4V45.78H46.02V60H45.2V45.78H39.8ZM55.0953 60.2C51.9353 60.2 50.2953 58.4 50.2953 55.4C50.2953 52.4 51.9353 50.6 55.0953 50.6C58.2553 50.6 59.8953 52.4 59.8953 55.4V55.66H51.0953C51.1753 58.14 52.4753 59.5 55.0953 59.5C57.2953 59.5 58.5753 58.72 58.9753 57.4H59.7353C59.2353 59.14 57.7153 60.2 55.0953 60.2ZM51.1153 54.96H59.0753C58.9353 52.58 57.6353 51.3 55.0953 51.3C52.5553 51.3 51.2553 52.58 51.1153 54.96ZM66.8922 60.2C63.7322 60.2 62.0922 58.4 62.0922 55.4C62.0922 52.4 63.7322 50.6 66.8922 50.6C69.4522 50.6 71.1922 51.8 71.5322 54.06H70.7322C70.4522 52.22 69.0322 51.3 66.8922 51.3C64.1922 51.3 62.8922 52.74 62.8922 55.4C62.8922 58.04 64.1922 59.5 66.8922 59.5C69.0322 59.5 70.4522 58.58 70.7322 56.74H71.5322C71.1922 59 69.4522 60.2 66.8922 60.2ZM74.8328 60H74.0328V44.6H74.8328V50.4C74.8328 51.16 74.8328 51.4 74.5928 52.3L74.8328 52.38C75.7128 51.22 77.2328 50.6 78.8328 50.6C81.4928 50.6 83.6328 52.36 83.6328 55.6V60H82.8328V55.6C82.8328 52.66 80.9328 51.3 78.6328 51.3C76.8328 51.3 75.4128 52.3 74.8328 53.18V60ZM95.4352 55.6V60H94.6352V55.6C94.6352 52.66 92.7352 51.3 90.7352 51.3C89.2352 51.3 87.8152 52.3 87.2352 53.18V60H86.4352V50.8H87.2352C87.2352 51.16 87.2352 51.4 86.9952 52.3L87.2352 52.38C88.1152 51.22 89.6352 50.6 90.9352 50.6C93.2952 50.6 95.4352 52.36 95.4352 55.6ZM102.244 59.5C104.924 59.5 106.244 58.1 106.244 55.4C106.244 52.68 104.924 51.3 102.244 51.3C99.5438 51.3 98.2438 52.68 98.2438 55.4C98.2438 58.1 99.5438 59.5 102.244 59.5ZM102.244 50.6C105.384 50.6 107.044 52.32 107.044 55.4C107.044 58.48 105.384 60.2 102.244 60.2C99.0838 60.2 97.4438 58.48 97.4438 55.4C97.4438 52.32 99.0838 50.6 102.244 50.6ZM109.541 60V44.6H110.321V60H109.541ZM117.615 59.5C120.295 59.5 121.615 58.1 121.615 55.4C121.615 52.68 120.295 51.3 117.615 51.3C114.915 51.3 113.615 52.68 113.615 55.4C113.615 58.1 114.915 59.5 117.615 59.5ZM117.615 50.6C120.755 50.6 122.415 52.32 122.415 55.4C122.415 58.48 120.755 60.2 117.615 60.2C114.455 60.2 112.815 58.48 112.815 55.4C112.815 52.32 114.455 50.6 117.615 50.6ZM129.292 56.98C131.792 56.98 132.912 55.78 132.912 54.14C132.912 52.5 131.792 51.3 129.292 51.3C126.792 51.3 125.712 52.5 125.712 54.14C125.712 55.78 126.792 56.98 129.292 56.98ZM127.472 60C127.092 60.12 125.312 60.7 125.312 62.4C125.312 64 126.812 64.9 129.312 64.9C131.812 64.9 133.312 64 133.312 62.4C133.312 60.8 132.192 59.8 127.472 60ZM126.672 59.7C125.552 59.62 124.912 59.28 124.912 58.42C124.912 57.44 126.052 57.12 126.672 57.08V56.84C125.512 56.48 124.912 55.44 124.912 54.14C124.912 52.14 126.332 50.6 129.292 50.6C130.232 50.6 131.112 50.8 131.812 50.8C133.252 50.8 134.212 50.42 134.712 49.94L135.192 50.54C134.592 51.06 133.772 51.28 132.992 51.28C132.692 51.28 132.492 51.28 131.892 51.22V51.46C133.212 51.94 133.712 53 133.712 54.14C133.712 56.14 132.252 57.68 129.292 57.68C128.812 57.68 128.112 57.6 127.352 57.36C126.592 57.42 125.712 57.6 125.712 58.28C125.712 58.96 126.452 59.28 129.312 59.28C132.172 59.28 134.112 60.36 134.112 62.4C134.112 64.44 132.172 65.6 129.312 65.6C126.452 65.6 124.512 64.44 124.512 62.4C124.512 60.9 125.652 60.02 126.672 59.94V59.7ZM140.111 60L135.891 50.8H136.691L139.311 56.48C139.691 57.3 140.391 58.48 140.391 59.18V59.38H140.631V59.18C140.631 58.48 141.331 57.3 141.711 56.48L144.331 50.8H145.171L138.451 65.4H137.611L140.111 60Z" fill="#343434"/>
</svg>
