<svg width="306" height="298" viewBox="0 0 306 298" fill="none" xmlns="http://www.w3.org/2000/svg">
<path d="M55.8 187.1C86.6 187.1 110.5 210.8 110.5 241.5C110.5 272.9 86.6 297.4 55.8 297.4C25 297.4 0.899994 272.9 0.899994 241.5C0.899994 210.9 25 187.1 55.8 187.1ZM55.8 283.7C77.6 283.7 95.1 265.6 95.1 241.5C95.1 218.2 77.6 200.7 55.8 200.7C34 200.7 16.4 218.2 16.4 241.5C16.3 265.6 34 283.7 55.8 283.7Z" fill="url(#paint0_linear_1_13)"/>
<path d="M126.3 232H116.3V220.2H126.7V198.1H141V220.2H159.4V232H141V266C141 281.3 151.7 283.2 157.3 283.2C159.4 283.2 160.8 282.9 160.8 282.9V295.9C160.8 295.9 158.7 296.2 155.7 296.2C145.9 296.2 126.4 293.2 126.4 267.6V232H126.3Z" fill="url(#paint1_linear_1_13)"/>
<path d="M170.2 219.2H184.9V264.8C184.9 275.4 187 283.8 199.3 283.8C214.9 283.8 224.1 270 224.1 254.9V219.1H238.8V295.6H224.6V285.5C224.6 282.3 224.9 279.9 224.9 279.9H224.6C221.4 287.5 211.5 297.4 196.5 297.4C179.3 297.4 170.4 288.3 170.4 268.1V219.2H170.2Z" fill="url(#paint2_linear_1_13)"/>
<path d="M256.4 275.8C256.4 275.8 265 284.7 278.3 284.7C284.6 284.7 291 281.4 291 275.2C291 261.1 251.7 264 251.7 239.1C251.7 225.2 264.1 217.3 279.4 217.3C296.2 217.3 304 225.8 304 225.8L298.1 236.8C298.1 236.8 291.3 230 279.2 230C272.9 230 266.7 232.7 266.7 239.4C266.7 253.2 306 250.1 306 275.2C306 287.9 295.1 297.4 278.3 297.4C259.6 297.4 249.3 286.2 249.3 286.2L256.4 275.8Z" fill="url(#paint3_linear_1_13)"/>
<path d="M174.6 49.8C171.2 49.8 168.5 52.5 168.5 55.9C168.5 59.3 171.2 62 174.6 62C178 62 180.7 59.3 180.7 55.9C180.7 52.5 178 49.8 174.6 49.8Z" fill="url(#paint4_linear_1_13)"/>
<path d="M125.7 49.8C122.3 49.8 119.6 52.5 119.6 55.9C119.6 59.3 122.3 62 125.7 62C129.1 62 131.8 59.3 131.8 55.9C131.8 52.5 129 49.8 125.7 49.8Z" fill="url(#paint5_linear_1_13)"/>
<path d="M216.9 7.8C211.8 15.4 204 21.2 194.9 23.8C186 11.5 172.2 2.99999 156.3 1.19999C155.3 1.09999 154.3 0.999992 153.2 0.999992C152.2 0.899992 151.2 0.899994 150.2 0.899994C149.2 0.899994 148.2 0.899992 147.2 0.999992C146.2 0.999992 145.1 1.09999 144.1 1.19999H144C130.5 2.79999 118.7 9.09999 109.8 18.7C108.4 20.3 107.1 21.8 105.7 23.8H105.6C96.5 21.2 88.8 15.4 83.6 7.8C85.2 16.3 89.8 23.7 96.1 29.1C97.5 30.3 99 31.3 100.5 32.3C98.9 35.6 97.7 39 96.8 42.6C95.7 46.9 95.2 51.4 95.2 56V68.2C95.2 77.6 96.6 86.7 99.3 95.3C100.9 100.5 103 105.5 105.4 110.3C113.3 125.5 125.3 138.3 139.9 147C131.7 149.8 124 154.2 118.6 160.1C131.4 154.8 152.1 153.8 166.5 157.6C175.2 159.6 180 160 187 160C189.1 160 191.1 159.9 193.1 159.8C196.7 159.6 200.3 159.1 203.8 158.5C204.3 158.4 204.8 158.3 205.3 158.2C205.3 158.2 205.2 52.9 205.1 51.4C204.9 48.4 204.4 45.4 203.6 42.5C203.3 41.4 203 40.4 202.7 39.3C201.9 36.8 201 34.4 199.9 32.1C201.5 31.1 202.9 30.1 204.3 28.9C210.7 23.7 215.2 16.2 216.9 7.8ZM120.4 25.1C126.9 18.8 135.4 14.5 144.9 13.4C145.3 13.3 145.8 13.3 146.2 13.3C147.5 13.2 148.8 13.1 150.2 13.1C151.6 13.1 152.9 13.2 154.2 13.3C154.6 13.3 155.1 13.4 155.5 13.4C165 14.6 173.5 18.8 180 25.1C180.2 25.3 180.4 25.5 180.7 25.8C174.1 26.8 168 29.2 162.8 32.8C157.7 36.3 153.4 40.8 150.3 46.1C147.1 40.8 142.8 36.3 137.8 32.8C132.5 29.2 126.5 26.7 119.9 25.8C119.6 25.9 120.1 25.4 120.4 25.1ZM119.5 110.6C117.1 106.9 115.1 102.9 113.4 98.8C113 97.9 112.6 96.9 112.3 96C113.3 97 114.4 97.9 115.5 98.8C120 102.5 125.1 105.4 130.7 107.5C136.8 109.8 143.4 111.1 150.3 111.1C152.8 111.1 155.2 110.9 157.6 110.6C160.5 125.6 168.9 138.6 180.6 147.6C154.8 145.5 132.5 131.3 119.5 110.6ZM193 141.3C180.8 134.2 171.9 122.1 169.3 107.7L169.7 107.5C175.2 105.4 180.3 102.4 184.9 98.8C187.9 96.4 190.6 93.6 193 90.6V141.3ZM193 56.4C192.8 72.7 183.6 86.7 170.2 93.9C169.7 94.2 169.2 94.4 168.7 94.6C164.9 96.4 160.8 97.7 156.4 98.4C156.3 98.4 156.3 98.4 156.2 98.4C154.2 98.7 152.2 98.8 150.1 98.8C148 98.8 145.9 98.6 143.8 98.3C138.9 97.6 134.3 96 130.1 93.8C118 87.4 109.3 75.3 107.6 61.1C107.4 59.4 107.3 57.7 107.3 55.9C107.3 49.4 108.8 43.1 111.4 37.6C113.4 37.5 113.4 37.5 113.4 37.5C130.3 37.5 144 49.7 144 68.1C144 68.1 144 74.2 150.1 80.3C156.2 74.2 156.2 68.1 156.2 68.1C156.2 49.7 169.9 37.5 186.8 37.5C187.5 37.5 188.2 37.5 188.8 37.6C189.7 39.5 190.5 41.4 191.1 43.5C192.3 47.4 192.9 51.6 192.9 55.9V56.4H193Z" fill="url(#paint6_linear_1_13)"/>
<defs>
<linearGradient id="paint0_linear_1_13" x1="-23.8958" y1="184.213" x2="239.477" y2="375.756" gradientUnits="userSpaceOnUse">
<stop offset="0.0253433" stop-color="#009BA6"/>
<stop offset="0.2158" stop-color="#519F99"/>
<stop offset="0.6151" stop-color="#9EA673"/>
<stop offset="1" stop-color="#D4A940"/>
</linearGradient>
<linearGradient id="paint1_linear_1_13" x1="3.65622" y1="146.329" x2="267.029" y2="337.872" gradientUnits="userSpaceOnUse">
<stop offset="0.0341647" stop-color="#009BA6"/>
<stop offset="0.2229" stop-color="#519F99"/>
<stop offset="0.6186" stop-color="#9EA673"/>
<stop offset="1" stop-color="#D4A940"/>
</linearGradient>
<linearGradient id="paint2_linear_1_13" x1="22.5398" y1="120.364" x2="285.912" y2="311.907" gradientUnits="userSpaceOnUse">
<stop offset="0.0321387" stop-color="#009BA6"/>
<stop offset="0.2213" stop-color="#519F99"/>
<stop offset="0.6178" stop-color="#9EA673"/>
<stop offset="1" stop-color="#D4A940"/>
</linearGradient>
<linearGradient id="paint3_linear_1_13" x1="45.8736" y1="88.2794" x2="309.246" y2="279.823" gradientUnits="userSpaceOnUse">
<stop offset="0.0384042" stop-color="#009BA6"/>
<stop offset="0.2263" stop-color="#519F99"/>
<stop offset="0.6203" stop-color="#9EA673"/>
<stop offset="1" stop-color="#D4A940"/>
</linearGradient>
<linearGradient id="paint4_linear_1_13" x1="105.799" y1="5.88229" x2="369.171" y2="197.426" gradientUnits="userSpaceOnUse">
<stop offset="0.031216" stop-color="#009BA6"/>
<stop offset="0.2206" stop-color="#519F99"/>
<stop offset="0.6175" stop-color="#9EA673"/>
<stop offset="1" stop-color="#D4A940"/>
</linearGradient>
<linearGradient id="paint5_linear_1_13" x1="88.8521" y1="29.1842" x2="352.224" y2="220.728" gradientUnits="userSpaceOnUse">
<stop offset="0.0289792" stop-color="#009BA6"/>
<stop offset="0.2188" stop-color="#519F99"/>
<stop offset="0.6166" stop-color="#9EA673"/>
<stop offset="1" stop-color="#D4A940"/>
</linearGradient>
<linearGradient id="paint6_linear_1_13" x1="90.0757" y1="27.5016" x2="353.448" y2="219.045" gradientUnits="userSpaceOnUse">
<stop stop-color="#009BA6"/>
<stop offset="0.1954" stop-color="#519F99"/>
<stop offset="0.6051" stop-color="#9EA673"/>
<stop offset="1" stop-color="#D4A940"/>
</linearGradient>
</defs>
</svg>
